<?xml version="1.0" standalone="no"?>
<!DOCTYPE svg PUBLIC "-//W3C//DTD SVG 20010904//EN"
 "http://www.w3.org/TR/2001/REC-SVG-20010904/DTD/svg10.dtd">
<svg version="1.0" xmlns="http://www.w3.org/2000/svg"
 width="512.000000pt" height="512.000000pt" viewBox="0 0 512.000000 512.000000"
 preserveAspectRatio="xMidYMid meet">
<metadata>
Created by potrace 1.11, written by Peter Selinger 2001-2013
</metadata>
<g transform="translate(0.000000,512.000000) scale(0.100000,-0.100000)"
fill="#000000" stroke="none">
<path d="M2500 5113 c-56 -9 -127 -38 -209 -86 -47 -27 -99 -57 -116 -67 -16
-9 -104 -60 -195 -112 -303 -175 -555 -320 -587 -339 -17 -10 -123 -71 -235
-135 -111 -65 -212 -123 -223 -129 -11 -5 -31 -18 -45 -26 -14 -9 -117 -69
-229 -134 -233 -134 -255 -149 -299 -214 -65 -95 -62 -45 -62 -1337 l0 -1172
30 -59 c17 -33 44 -71 61 -84 17 -13 275 -165 572 -336 298 -172 551 -318 562
-325 34 -20 377 -219 420 -243 39 -21 151 -87 395 -228 135 -78 158 -86 243
-83 60 2 72 7 202 81 77 44 160 92 185 106 88 51 388 224 568 328 100 58 195
113 210 121 167 89 970 562 993 584 39 38 64 87 78 156 9 41 11 354 9 1225
l-3 1170 -28 57 c-29 60 -87 118 -153 154 -22 12 -104 59 -184 106 -122 71
-698 403 -795 458 -16 10 -53 31 -81 47 -27 17 -72 43 -100 58 -27 15 -137 78
-244 140 -107 62 -211 122 -230 132 -20 11 -90 52 -157 91 -67 39 -142 76
-165 83 -46 12 -146 19 -188 12z"/>
</g>
</svg>
